<?xml version="1.0" encoding="utf-8"?>
<!-- Generator: Adobe Illustrator 19.0.0, SVG Export Plug-In . SVG Version: 6.00 Build 0)  -->
<svg version="1.1" id="Layer_1" xmlns="http://www.w3.org/2000/svg" xmlns:xlink="http://www.w3.org/1999/xlink" x="0px" y="0px"
	 viewBox="0 0 971.6 160.8" style="enable-background:new 0 0 971.6 160.8;" xml:space="preserve">
<style type="text/css">
	.st0{fill:#414042;}
</style>
<path id="XMLID_113_" class="st0" d="M790.3,160.8L760.8,116H759h-30.8v44.8h-35.4V0H759c40.9,0,66.5,22.3,66.5,58.3
	c0,24.1-11.6,41.8-31.5,50.8l34.3,51.7H790.3z M757.1,30.3h-28.9v56h28.9c21.7,0,32.6-10.6,32.6-28
	C789.7,40.7,778.7,30.3,757.1,30.3z"/>
<path id="XMLID_110_" class="st0" d="M920.9,126.4h-71l-13.5,34.4h-36.3L868.3,0.2h35l68.4,160.6h-37.1L920.9,126.4z M909.8,98.2
	l-24.3-61.5l-24.3,61.5H909.8z"/>
<path id="XMLID_107_" class="st0" d="M192.2,0.2h69.5c50,0,84.3,31.7,84.3,80.3s-34.3,80.3-84.3,80.3h-69.5V0.2z M259.9,130.3
	c30.4,0,50.2-19,50.2-49.8c0-30.7-19.9-49.8-50.2-49.8h-32.3v99.6H259.9z"/>
<path id="XMLID_105_" class="st0" d="M330.5,88.5V0h34.8v87.2c0,30,12.5,42.5,33.5,42.5c21.3,0,33.6-12.4,33.6-42.5V0h34.4v88.5
	c0,46.5-25.4,72.3-68.2,72.3S330.5,135,330.5,88.5z"/>
<path id="XMLID_103_" class="st0" d="M447.9,142.8l11.6-27.1c12.5,9.5,31.1,16.2,48.9,16.2c20.3,0,28.6-7.1,28.6-16.7
	c0-29.1-86.1-9.1-86.1-66.8C450.8,22,471.1,0,513.2,0c18.6,0,37.6,4.7,51.4,13.8L554,41.1c-13.7-8.2-27.9-12.2-41-12.2
	c-20.3,0-28.1,8-28.1,17.8c0,28.6,86.1,8.9,86.1,66c0,26-20.5,48.2-62.8,48.2C484.7,160.8,461,153.4,447.9,142.8z"/>
<g id="XMLID_98_">
	<path id="XMLID_102_" class="st0" d="M642.6,101.3"/>
	<path id="XMLID_100_" class="st0" d="M663.6,77.9h31.3V141c-16.3,12.9-38.7,19.8-59.9,19.8c-46.5,0-80.8-33.5-80.8-80.4
		S588.6,0,635.7,0c26,0,47.6,9.3,62,26.9l-22,21.3c-10.8-12-23.3-17.5-38.3-17.5c-28.8,0-48.4,20.2-48.4,49.7
		c0,29.1,19.7,49.7,48,49.7c9.3,0,18-1.8,26.6-6.7V77.9z"/>
	<rect id="XMLID_99_" x="642.6" y="77.9" class="st0" width="21" height="25.1"/>
</g>
<g id="XMLID_90_">
	<path id="XMLID_94_" class="st0" d="M127.8,70.9v4.5l22.6,17.1V70.9H127.8z M0,160.8h22.6V22.6h54.6v115.5l22.6,22.6V0H0V160.8z"/>
	<polygon id="XMLID_93_" class="st0" points="170.5,107.6 170.5,160.8 147.9,160.8 147.9,117.9 104.6,85.3 99.8,88.8 99.8,61.5 
		102.8,59.2 104.6,57.9 106.3,59.2 127.8,75.5 150.5,92.5 169,106.5 	"/>
	<polygon id="XMLID_92_" class="st0" points="99.8,160.8 38.6,160.8 38.6,107.6 40.1,106.5 77.2,78.5 77.2,105.9 61.2,117.9 
		61.2,138.2 77.2,138.2 	"/>
	<path id="XMLID_91_" class="st0" d="M77.2,78.5"/>
</g>
</svg>
